<?xml version="1.0" standalone="no"?><!DOCTYPE svg PUBLIC "-//W3C//DTD SVG 1.1//EN" "http://www.w3.org/Graphics/SVG/1.1/DTD/svg11.dtd"><svg t="1554443572180" class="icon" style="" viewBox="0 0 1118 1024" version="1.1" xmlns="http://www.w3.org/2000/svg" p-id="24443" xmlns:xlink="http://www.w3.org/1999/xlink" width="34.9375" height="32"><defs><style type="text/css"></style></defs><path d="M1045.315 962l-983.315-1.115 48.528-60.289c57.194-71.060 101.885-180.743 127.758-312.091l-105.351 4.085 149.175-530.591 253.536 515.117-73.163 2.847c34.292 53.603 70.564 86.658 106.588 96.685 53.603 15.103 100.523-34.663 153.879-165.144l-129.863-32.682 338.955-412.366 72.173 515.86-94.333-23.769c9.533 138.9 43.206 255.392 100.027 346.63l35.406 56.822zM209.813 886.856l705.639 0.866c-50.509-103.742-78.115-229.89-82.201-376.218l-1.361-49.024 83.439 21.045-33.425-239.051-156.973 190.894 97.179 24.512-14.608 38.872c-35.406 94.581-109.188 291.293-258.611 249.326-67.964-19.064-129.119-81.706-181.981-186.313l-26.121-51.623 77.62-2.971-117.358-238.309-68.955 245.488 94.581-3.591-7.057 44.691c-20.674 130.358-58.928 245.117-109.807 331.403z" p-id="24444" fill="#1296db"></path></svg>