<?xml version="1.0" standalone="no"?><!DOCTYPE svg PUBLIC "-//W3C//DTD SVG 1.1//EN" "http://www.w3.org/Graphics/SVG/1.1/DTD/svg11.dtd"><svg t="1554443634796" class="icon" style="" viewBox="0 0 1024 1024" version="1.1" xmlns="http://www.w3.org/2000/svg" p-id="29668" xmlns:xlink="http://www.w3.org/1999/xlink" width="32" height="32"><defs><style type="text/css"></style></defs><path d="M822.66112 218.55232l-61.55264 470.9376c-0.45056 3.45088-2.03776 6.53312-4.37248 8.86784-2.304 2.304-5.3248 3.87072-8.72448 4.352-6.83008 0.96256-13.47584-2.7648-16.22016-9.10336l-81.99168-189.07136L336.03584 818.29888c-6.00064 6.00064-15.72864 6.00064-21.72928 0L205.70112 709.6832c-6.00064-6.00064-6.00064-15.7184 0-21.71904l313.76384-313.76384-189.07136-81.99168c-6.33856-2.75456-10.06592-9.39008-9.10336-16.2304 0.95232-6.84032 6.3488-12.20608 13.21984-13.09696l470.92736-61.55264c4.73088-0.62464 9.48224 0.99328 12.8512 4.36224C821.66784 209.07008 823.28576 213.82144 822.66112 218.55232z" p-id="29669" fill="#1296db"></path></svg>