<?xml version="1.0" standalone="no"?><!DOCTYPE svg PUBLIC "-//W3C//DTD SVG 1.1//EN" "http://www.w3.org/Graphics/SVG/1.1/DTD/svg11.dtd"><svg t="1554443586631" class="icon" style="" viewBox="0 0 1024 1024" version="1.1" xmlns="http://www.w3.org/2000/svg" p-id="24679" xmlns:xlink="http://www.w3.org/1999/xlink" width="32" height="32"><defs><style type="text/css"></style></defs><path d="M327.331 962l-16.84-263.183-243.903-129.733 86.759-22.416c2.671-0.697 256.447-67.712 455.052-233.566l-84.786-88.153 433.798-162.95-153.31 454.703-67.364-70.035c-137.862 195.122-351.336 446.922-353.659 449.593l-55.749 65.738zM251.722 588.597l125.783 66.899 8.246 128.804c78.978-95.587 224.274-274.913 317.887-412.079l24.158-35.424 46.922 48.78 69.686-206.737-197.213 74.1 61.556 63.995-26.597 24.157c-147.386 133.913-327.991 211.267-430.43 247.503z" p-id="24680" fill="#1296db"></path></svg>