<?xml version="1.0" encoding="utf-8"?>
<!-- Generator: Adobe Illustrator 16.0.0, SVG Export Plug-In . SVG Version: 6.00 Build 0)  -->
<!DOCTYPE svg PUBLIC "-//W3C//DTD SVG 1.1//EN" "http://www.w3.org/Graphics/SVG/1.1/DTD/svg11.dtd">
<svg version="1.1" id="图形" xmlns="http://www.w3.org/2000/svg" xmlns:xlink="http://www.w3.org/1999/xlink" x="0px" y="0px"
	 width="1000.637px" height="1000.678px" viewBox="15.167 -16.333 1000.637 1000.678"
	 enable-background="new 15.167 -16.333 1000.637 1000.678" xml:space="preserve">
<g>
	<g transform="scale(0.1953125, 0.1953125)">
		<path fill="#929292" d="M580.046,1611.192c111.605-263.777,271.257-500.414,474.436-703.733
			c203.462-203.322,439.974-362.974,704.008-474.579c273.327-115.74,563.186-174.132,862.09-174.132
			c303.569,0,598.073,60.457,875.023,179.81c264.544,113.93,501.709,276.169,704.253,482.591l668.078-668.078l22.735,1729.886
			l-1730.13-22.735l682.793-682.811c-324.484-331.974-758.508-514.891-1222.752-514.891
			c-943.223,0-1710.771,767.548-1710.771,1710.773s767.548,1710.773,1710.771,1710.773c464.244,0,898.798-182.92,1223.282-515.159
			c97.135-99.45,256.789-101.255,356.509-3.865c99.205,97.135,101.27,256.544,3.62,356.259
			c-203.584,208.48-442.804,372.529-709.678,487.244c-276.684,119.095-570.429,179.299-873.733,179.299
			c-298.904,0-588.764-58.65-862.09-174.139c-264.034-111.605-500.546-271.259-704.008-474.314
			c-203.18-203.584-362.832-440.224-474.436-703.993c-115.617-273.079-174.14-563.204-174.14-862.105
			C405.906,2174.388,464.429,1884.262,580.046,1611.192z"/>
	</g>
</g>
</svg>
