<?xml version="1.0" encoding="utf-8"?>
<!-- Generator: Adobe Illustrator 16.0.0, SVG Export Plug-In . SVG Version: 6.00 Build 0)  -->
<!DOCTYPE svg PUBLIC "-//W3C//DTD SVG 1.1//EN" "http://www.w3.org/Graphics/SVG/1.1/DTD/svg11.dtd">
<svg version="1.1" id="图形" xmlns="http://www.w3.org/2000/svg" xmlns:xlink="http://www.w3.org/1999/xlink" x="0px" y="0px"
	 width="1000.637px" height="1000.678px" viewBox="15.167 -16.333 1000.637 1000.678"
	 enable-background="new 15.167 -16.333 1000.637 1000.678" xml:space="preserve">
<g>
	<path d="M516.765,47.667c-241.702,0-437.599,195.901-437.599,437.598c0,241.697,195.897,437.602,437.599,437.602
		c241.695,0,437.597-195.909,437.597-437.602C954.362,243.568,758.46,47.667,516.765,47.667L516.765,47.667z M516.765,84.136
		c221.184,0,401.128,179.944,401.128,401.128c0,97.311-34.86,186.623-92.73,256.156c-39.993-16.702-134.4-49.464-192.841-66.72
		c-4.984-1.566-5.768-1.817-5.768-22.559c0-17.132,7.049-34.383,13.923-48.982c7.444-15.868,16.276-42.539,19.447-66.473
		c8.866-10.292,20.938-30.591,28.701-69.282c6.802-34.098,3.631-46.51-0.89-58.155c-0.464-1.23-0.962-2.438-1.319-3.648
		c-1.707-7.998,0.643-49.536,6.482-81.766c4.026-22.116-1.034-69.141-31.48-108.045c-19.23-24.589-56.019-54.771-123.215-58.972
		l-36.861,0.034c-66.059,4.167-102.881,34.35-122.111,58.938c-30.446,38.904-35.503,85.929-31.481,108.028
		c5.878,32.246,8.194,73.785,6.518,81.621c-0.354,1.371-0.851,2.579-1.351,3.809c-4.49,11.646-7.695,24.057-0.855,58.155
		c7.726,38.691,19.802,58.99,28.702,69.282c3.137,23.934,11.97,50.604,19.443,66.473c5.448,11.606,8.014,27.402,8.014,49.731
		c0,20.741-0.782,20.993-5.452,22.47c-60.429,17.843-156.619,52.601-192.479,68.303c-59.006-69.853-94.654-160.02-94.654-258.395
		C115.631,264.08,295.579,84.136,516.765,84.136L516.765,84.136z M236.713,772.087c41.058-16.762,122.929-45.965,176.705-61.846
		c31.268-9.866,31.268-36.2,31.268-57.351c0-17.541-1.213-43.394-11.467-65.259c-7.053-14.975-15.102-40.653-16.88-60.752
		c-0.392-4.703-2.601-9.045-6.165-12.144c-5.162-4.524-15.667-21.087-22.362-54.487c-5.303-26.445-3.061-32.23-0.889-37.822
		c0.927-2.384,1.816-4.734,2.533-7.39c4.375-16.004-0.503-68.588-5.806-97.753c-2.315-12.679,0.604-48.701,24.321-79.041
		c21.261-27.19,53.453-42.343,94.514-44.96l34.579-0.038c42.164,2.655,74.355,17.808,95.65,44.998
		c23.721,30.34,26.606,66.362,24.287,79.059c-5.27,29.148-10.186,81.728-5.806,97.719c0.749,2.668,1.604,5.018,2.532,7.406
		c2.171,5.589,4.414,11.377-0.855,37.818c-6.695,33.404-17.234,49.966-22.401,54.486c-3.524,3.099-5.729,7.445-6.159,12.144
		c-1.745,20.104-9.794,45.778-16.843,60.752c-8.087,17.184-17.379,40.065-17.379,64.511c0,21.158,0,47.493,31.587,57.444
		c51.46,15.204,133.724,43.462,177.169,60.548c-72.542,71.826-172.219,116.271-282.08,116.271
		C407.898,886.402,309.077,842.744,236.713,772.087L236.713,772.087z M236.713,772.087"/>
</g>
</svg>
